# xmcd
#
# Track frame offsets: 
#        150
#        12562
#        23055
#        34097
#        44430
#        54210
#        67135
#        78042
#        87987
#        98612
#        113515
#        122610
#        129515
#        140602
#        150702
#        163050
#        178682
#        193550
#        202335
#        215665
#        224865
#        241125
#        249292
#        259420
#        268567
#        276330
#        290682
#        302652
#        313387
#        323560
#
# Disc length: 4459 seconds
#
# Revision: 5
# Processed by: cddbd v1.5.2PL0 Copyright (c) Steve Scherf et al.
# Submitted via: ExactAudioCopy v0.95b4
#
DISCID=c211691e
DTITLE=Elvis Presley - The Definitive Country Album
DYEAR=1987
DGENRE=Country
TTITLE0=In The Ghetto
TTITLE1=Green Green Grass Of Home
TTITLE2=Always On My Mind
TTITLE3=Fairytale
TTITLE4=Take Good Care Of Her
TTITLE5=Lovin' Arms
TTITLE6=Moody Blue
TTITLE7=U.S. Male
TTITLE8=Burning Love
TTITLE9=He'll Have To Go
TTITLE10=It Keeps Right On A-Hurtin'
TTITLE11=I'm So Lonesome I Could Cry
TTITLE12=For The Good Times
TTITLE13=You Asked Me
TTITLE14=Don't Cry Daddy
TTITLE15=Suspicious Minds
TTITLE16=Kentucky Train
TTITLE17=Help Me Make It Through The Night
TTITLE18=There Goes My Everything
TTITLE19=Just Call Me Lonesome
TTITLE20=She Thinks I Still Care
TTITLE21=Early Mornin' Rain
TTITLE22=Guitar Man
TTITLE23=Snowbird
TTITLE24=Little Cabin On The Hill
TTITLE25=Funny How Time Slips Away
TTITLE26=I Really Don't Want To Know
TTITLE27=Make The World Go Away
TTITLE28=Your Cheatin' Heart
TTITLE29=Have I Told You Lately That I Love You
EXTD=YEAR: 1987
EXTT0=
EXTT1=
EXTT2=
EXTT3=
EXTT4=
EXTT5=
EXTT6=
EXTT7=
EXTT8=
EXTT9=
EXTT10=
EXTT11=
EXTT12=
EXTT13=
EXTT14=
EXTT15=
EXTT16=
EXTT17=
EXTT18=
EXTT19=
EXTT20=
EXTT21=
EXTT22=
EXTT23=
EXTT24=
EXTT25=
EXTT26=
EXTT27=
EXTT28=
EXTT29=
PLAYORDER=
